<svg xmlns="http://www.w3.org/2000/svg" width="64" height="64" viewBox="0 0 64 64">
    <g fill="none" fill-rule="evenodd" transform="translate(2 2)">
        <path fill="#FFF" fill-rule="nonzero" d="M21.47 24.65v3.008h-.199A2.28 2.28 0 0 0 19 29.94v12.576a2.28 2.28 0 0 0 2.271 2.283H38.73A2.28 2.28 0 0 0 41 42.517V29.935a2.28 2.28 0 0 0-2.271-2.283h-.059v-3.007c0-4.767-3.858-8.645-8.6-8.645-4.742.006-8.6 3.884-8.6 8.65zm9.876 12.135c-.175.13-.222.253-.222.459.006.924.006 1.842.006 2.766.017.382-.176.759-.515.93-.802.412-1.604-.165-1.604-.93v-.006c0-.924 0-1.848.005-2.772 0-.188-.04-.312-.204-.435-.832-.618-1.107-1.672-.691-2.595.404-.9 1.393-1.43 2.324-1.242 1.036.212 1.756 1.047 1.768 2.089 0 .724-.287 1.312-.867 1.736zm-6.111-12.134c0-2.684 2.172-4.861 4.835-4.861 2.67 0 4.836 2.183 4.836 4.86v3.008h-9.671V24.65z"/>
        <circle cx="30" cy="30" r="30" stroke="#FFF" stroke-width="4"/>
    </g>
</svg>
